<svg width="56" height="64" viewBox="0 0 56 64" fill="none" xmlns="http://www.w3.org/2000/svg">
<rect width="56" height="64" rx="6.384" fill="#5438DC"/>
<path opacity="0.1" d="M43.4922 4.38867H46.0857C48.5097 4.38867 50.4747 6.35369 50.4747 8.77767V13.7652" stroke="white" stroke-width="3.192" stroke-linecap="round" stroke-linejoin="round"/>
<path opacity="0.1" d="M50.2734 38.1055V54.0655" stroke="white" stroke-width="3.192" stroke-linecap="round" stroke-linejoin="round"/>
<path d="M23.3965 17.834C21.7603 17.834 20.4237 19.0781 20.245 20.6673H18.4382C17.0817 20.6673 15.959 21.7901 15.959 23.1465V27.3965C15.959 29.9266 18.033 32.0006 20.5632 32.0006H20.5977C21.5448 34.9564 24.1374 37.1759 27.2923 37.5898V39.7923H24.8132C22.2745 39.7923 20.209 41.8578 20.209 44.3965V45.1048C20.209 45.692 20.6843 46.1673 21.2715 46.1673H35.4382C36.0254 46.1673 36.5007 45.692 36.5007 45.1048V44.3965C36.5007 41.8578 34.4352 39.7923 31.8965 39.7923H29.4173V37.5898C32.5722 37.1759 35.1649 34.9564 36.1119 32.0006H36.1465C38.6766 32.0006 40.7507 29.9266 40.7507 27.3965V23.1465C40.7507 21.7901 39.6279 20.6673 38.2715 20.6673H36.4647C36.2859 19.0781 34.9493 17.834 33.3132 17.834H23.3965ZM18.4382 22.7923H20.209V29.5215C20.209 29.6299 20.2214 29.7351 20.2256 29.8424C19.0088 29.6791 18.084 28.662 18.084 27.3965V23.1465C18.084 22.9375 18.2292 22.7923 18.4382 22.7923ZM36.5007 22.7923H38.2715C38.4805 22.7923 38.6257 22.9375 38.6257 23.1465V27.3965C38.6257 28.662 37.7009 29.6791 36.4841 29.8424C36.4883 29.7351 36.5007 29.6299 36.5007 29.5215V22.7923Z" fill="white"/>
</svg>
