<?xml version="1.0" encoding="UTF-8"?>
<svg width="272px" height="143px" viewBox="0 0 272 143" version="1.1" xmlns="http://www.w3.org/2000/svg" xmlns:xlink="http://www.w3.org/1999/xlink">
    <defs></defs>
    <g id="Page-1" stroke="none" stroke-width="1" fill="none" fill-rule="evenodd">
        <g id="Artboard-8">
            <rect id="Rectangle-40" fill="#F7A44A" transform="translate(181.052487, 121.052487) rotate(-27.000000) translate(-181.052487, -121.052487) " x="176.552487" y="116.552487" width="9" height="9"></rect>
            <rect id="Rectangle-40" fill="#F7A44A" transform="translate(141.427101, 110.427101) rotate(-45.000000) translate(-141.427101, -110.427101) " x="139.567768" y="108.567768" width="3.71866595" height="3.71866595"></rect>
            <rect id="Rectangle-40" fill="#E2222E" transform="translate(244.337503, 91.337503) rotate(-60.000000) translate(-244.337503, -91.337503) " x="242.47817" y="89.4781703" width="3.71866595" height="3.71866595"></rect>
            <rect id="Rectangle-40" fill="#E2222E" transform="translate(20.457100, 135.457100) rotate(-60.000000) translate(-20.457100, -135.457100) " x="17.7781654" y="132.778165" width="5.35786972" height="5.35786972"></rect>
            <rect id="Rectangle-40" fill="#116EEE" transform="translate(124.457100, 137.457100) rotate(-60.000000) translate(-124.457100, -137.457100) " x="121.778165" y="134.778165" width="5.35786972" height="5.35786972"></rect>
            <rect id="Rectangle-40" fill="#116EEE" transform="translate(268.420012, 139.420012) rotate(-60.000000) translate(-268.420012, -139.420012) " x="262.840024" y="133.840024" width="11.1599755" height="11.1599755"></rect>
            <rect id="Rectangle-40" fill="#116EEE" transform="translate(250.457100, 117.457100) rotate(-60.000000) translate(-250.457100, -117.457100) " x="247.778165" y="114.778165" width="5.35786972" height="5.35786972"></rect>
            <rect id="Rectangle-40" fill="#008A22" transform="translate(87.756380, 118.756380) rotate(-60.000000) translate(-87.756380, -118.756380) " x="85.7385697" y="116.73857" width="4.03561985" height="4.03561985"></rect>
        </g>
    </g>
</svg>
