<svg width="56" height="64" viewBox="0 0 56 64" fill="none" xmlns="http://www.w3.org/2000/svg">
<rect width="56" height="64" rx="6.384" fill="#116EEE"/>
<path opacity="0.1" d="M43.4902 4.38867H46.0837C48.5077 4.38867 50.4727 6.35369 50.4727 8.77767V13.7652" stroke="white" stroke-width="3.192" stroke-linecap="round" stroke-linejoin="round"/>
<path opacity="0.1" d="M50.2734 38.1035V54.0635" stroke="white" stroke-width="3.192" stroke-linecap="round" stroke-linejoin="round"/>
<path d="M35.9444 20C34.2678 20 32.8889 21.4097 32.8889 23.1239V40.618C32.8889 42.3322 34.2678 43.7419 35.9444 43.7419C37.6211 43.7419 39 42.3322 39 40.618V23.1239C39 21.4097 37.6211 20 35.9444 20ZM35.9444 21.8744C36.6303 21.8744 37.1667 22.4227 37.1667 23.1239V40.618C37.1667 41.3192 36.6303 41.8676 35.9444 41.8676C35.2586 41.8676 34.7222 41.3192 34.7222 40.618V23.1239C34.7222 22.4227 35.2586 21.8744 35.9444 21.8744ZM28 26.2479C26.3233 26.2479 24.9444 27.6576 24.9444 29.3718V40.618C24.9444 42.3322 26.3233 43.7419 28 43.7419C29.6767 43.7419 31.0556 42.3322 31.0556 40.618V29.3718C31.0556 27.6576 29.6767 26.2479 28 26.2479ZM28 28.1222C28.6859 28.1222 29.2222 28.6706 29.2222 29.3718V40.618C29.2222 41.3192 28.6859 41.8676 28 41.8676C27.3141 41.8676 26.7778 41.3192 26.7778 40.618V29.3718C26.7778 28.6706 27.3141 28.1222 28 28.1222ZM20.0556 32.4958C18.3789 32.4958 17 33.9055 17 35.6197V40.618C17 42.3322 18.3789 43.7419 20.0556 43.7419C21.7322 43.7419 23.1111 42.3322 23.1111 40.618V35.6197C23.1111 33.9055 21.7322 32.4958 20.0556 32.4958ZM20.0556 34.3701C20.7414 34.3701 21.2778 34.9185 21.2778 35.6197V40.618C21.2778 41.3192 20.7414 41.8676 20.0556 41.8676C19.3697 41.8676 18.8333 41.3192 18.8333 40.618V35.6197C18.8333 34.9185 19.3697 34.3701 20.0556 34.3701Z" fill="white"/>
<path d="M17 35.6197C17 33.8944 18.368 32.4958 20.0556 32.4958C21.7431 32.4958 23.1111 33.8944 23.1111 35.6197V40.618C23.1111 42.3433 21.7431 43.7419 20.0556 43.7419C18.368 43.7419 17 42.3433 17 40.618V35.6197Z" fill="white"/>
<path d="M24.9444 29.3718C24.9444 27.6465 26.3125 26.2479 28 26.2479C29.6875 26.2479 31.0556 27.6465 31.0556 29.3718V40.618C31.0556 42.3433 29.6875 43.7419 28 43.7419C26.3125 43.7419 24.9444 42.3433 24.9444 40.618V29.3718Z" fill="white"/>
<path d="M32.8889 23.1239C32.8889 21.3986 34.2569 20 35.9444 20C37.632 20 39 21.3986 39 23.1239V40.618C39 42.3433 37.632 43.7419 35.9444 43.7419C34.2569 43.7419 32.8889 42.3433 32.8889 40.618V23.1239Z" fill="white"/>
</svg>
