<svg width="56" height="64" viewBox="0 0 56 64" fill="none" xmlns="http://www.w3.org/2000/svg">
<rect width="56" height="64" rx="6.384" fill="#FFCA3A"/>
<path d="M44.2324 4.40039H46.9449C49.3689 4.40039 51.3339 6.36541 51.3339 8.78939V13.8004" stroke="#FFD76B" stroke-width="3.192" stroke-linecap="round" stroke-linejoin="round"/>
<path d="M51.1309 38.1992V54.1992" stroke="#FFD76B" stroke-width="3.192" stroke-linecap="round" stroke-linejoin="round"/>
<path d="M28.0444 17C27.8336 16.9987 27.6267 17.0573 27.4471 17.1693C27.2674 17.2813 27.1223 17.4421 27.0282 17.6335L23.1543 25.4976L13.9557 26.9345C13.7498 26.9668 13.5567 27.0564 13.3979 27.1933C13.2391 27.3301 13.1207 27.509 13.0559 27.71C12.9911 27.9109 12.9825 28.1262 13.0309 28.3319C13.0792 28.5376 13.1828 28.7257 13.3301 28.8752L19.6931 35.3338L18.276 44.681C18.2443 44.8902 18.2703 45.1041 18.3511 45.2991C18.432 45.4942 18.5645 45.6626 18.7339 45.7858C18.9034 45.9091 19.1032 45.9822 19.3111 45.9971C19.5191 46.0121 19.727 45.9682 19.9119 45.8705L28.037 41.5673L36.1622 45.8705C36.3471 45.9682 36.555 46.0121 36.763 45.9971C36.9709 45.9822 37.1707 45.9091 37.3401 45.7858C37.5096 45.6626 37.6421 45.4942 37.723 45.2991C37.8038 45.1041 37.8298 44.8902 37.7981 44.681L36.381 35.3338L42.744 28.8752C42.8913 28.7257 42.9948 28.5376 43.0432 28.3319C43.0916 28.1262 43.0829 27.9109 43.0182 27.71C42.9534 27.509 42.835 27.3301 42.6762 27.1933C42.5174 27.0564 42.3243 26.9668 42.1184 26.9345L32.9198 25.4976L29.0459 17.6335C28.9529 17.4443 28.81 17.285 28.6333 17.1732C28.4565 17.0614 28.2527 17.0015 28.0444 17Z" fill="white"/>
</svg>
